<svg xmlns="http://www.w3.org/2000/svg" xmlns:xlink="http://www.w3.org/1999/xlink" viewBox="0 0 204.42 140"><defs><style>.cls-1{fill:url(#linear-gradient);}.cls-2{fill:url(#linear-gradient-2);}</style><linearGradient id="linear-gradient" x1="-5.7" y1="79.38" x2="201.65" y2="82.27" gradientUnits="userSpaceOnUse"><stop offset="0" stop-color="#eab05e"/><stop offset="0.11" stop-color="#eaa767"/><stop offset="0.3" stop-color="#e98d80"/><stop offset="0.31" stop-color="#e98b82"/><stop offset="0.76" stop-color="#e86ca8"/><stop offset="0.99" stop-color="#eb4cd6"/></linearGradient><linearGradient id="linear-gradient-2" x1="-5.55" y1="68.99" x2="201.8" y2="71.88" xlink:href="#linear-gradient"/></defs><title>Asset 1</title><g id="Layer_2" data-name="Layer 2"><g id="Layer_1-2" data-name="Layer 1"><rect class="cls-1" x="180.05" y="65.19" width="24.37" height="33.89" rx="12.18"/><path class="cls-2" d="M0,53.85V92.56a12.19,12.19,0,1,0,24.37,0V83.18a6.11,6.11,0,0,1,12.21,0v44.63a12.18,12.18,0,1,0,24.36,0V71.86a6.11,6.11,0,0,1,12.21,0v29.91a12.19,12.19,0,0,0,24.37,0v-4a6.11,6.11,0,0,1,12.21,0v4a12.18,12.18,0,0,0,24.36,0V81.48a6.11,6.11,0,1,1,12.21,0V96.9a12.19,12.19,0,0,0,24.37,0V53.85a12.19,12.19,0,1,0-24.37,0v2a6.11,6.11,0,0,1-12.21,0V22.18a12.18,12.18,0,1,0-24.36,0v50a6.11,6.11,0,1,1-12.21,0v-60a12.19,12.19,0,0,0-24.37,0V46.25a6.11,6.11,0,1,1-12.21,0V31.92a12.18,12.18,0,1,0-24.36,0V57.57a6.11,6.11,0,1,1-12.21,0V53.85A12.19,12.19,0,1,0,0,53.85Z"/></g></g></svg>