<svg xmlns="http://www.w3.org/2000/svg" xmlns:xlink="http://www.w3.org/1999/xlink" viewBox="0 0 533.11 133.48"><defs><style>.cls-1{fill:url(#linear-gradient);}.cls-2{fill:url(#linear-gradient-2);}.cls-3{fill:#232a33;}</style><linearGradient id="linear-gradient" x1="-0.75" y1="78.32" x2="194.36" y2="78.32" gradientUnits="userSpaceOnUse"><stop offset="0" stop-color="#eab05e"/><stop offset="0.11" stop-color="#eaa767"/><stop offset="0.3" stop-color="#e98d80"/><stop offset="0.31" stop-color="#e98b82"/><stop offset="0.76" stop-color="#e86ca8"/><stop offset="0.99" stop-color="#eb4cd6"/></linearGradient><linearGradient id="linear-gradient-2" x1="-0.75" y1="66.74" x2="194.36" y2="66.74" xlink:href="#linear-gradient"/></defs><title>Asset 3</title><g id="Layer_2" data-name="Layer 2"><g id="Layer_1-2" data-name="Layer 1"><rect class="cls-1" y="62.16" width="23.23" height="32.32" rx="11.62"/><path class="cls-2" d="M194.9,51.34V88.26a11.62,11.62,0,0,1-23.23,0v-9a5.82,5.82,0,1,0-11.64,0v42.55a11.62,11.62,0,0,1-23.24,0V68.52a5.82,5.82,0,1,0-11.63,0V97a11.62,11.62,0,0,1-23.24,0V93.27a5.82,5.82,0,0,0-11.64,0V97a11.62,11.62,0,1,1-23.23,0V77.69a5.82,5.82,0,1,0-11.64,0v14.7a11.62,11.62,0,0,1-23.24,0v-41a11.62,11.62,0,0,1,23.24,0v1.93a5.82,5.82,0,0,0,11.64,0V21.14a11.62,11.62,0,0,1,23.23,0V68.85a5.82,5.82,0,0,0,11.64,0V11.62a11.62,11.62,0,1,1,23.24,0V44.1a5.82,5.82,0,1,0,11.63,0V30.43a11.62,11.62,0,0,1,23.24,0V54.89a5.82,5.82,0,0,0,11.64,0V51.34a11.62,11.62,0,0,1,23.23,0Z"/><path class="cls-3" d="M273.25,36.05q7.26,6.81,7.25,18.12t-7.25,18.12Q266,79.1,255.18,79.1h-7.94V95.78a2.64,2.64,0,0,1-3,3h-13.9a2.64,2.64,0,0,1-3-3V32.23a2.63,2.63,0,0,1,3-3h24.82Q266,29.25,273.25,36.05Zm-14.2,22.24a5.42,5.42,0,0,0,1.59-4.12,5.44,5.44,0,0,0-1.59-4.12,5.35,5.35,0,0,0-3.87-1.54h-7.94V59.83h7.94A5.31,5.31,0,0,0,259.05,58.29Z"/><path class="cls-3" d="M328.16,82.47V95.78a2.63,2.63,0,0,1-3,3H289.44a2.64,2.64,0,0,1-3-3V32.23a2.63,2.63,0,0,1,3-3h13.9a2.63,2.63,0,0,1,3,3V79.49h18.87C327.17,79.49,328.16,80.48,328.16,82.47Z"/><path class="cls-3" d="M382.43,30.29a2.32,2.32,0,0,1-.25,2.53L361.63,68.77v27a2.64,2.64,0,0,1-3,3h-13.9a2.64,2.64,0,0,1-3-3v-27L321.21,32.82a2.34,2.34,0,0,1-.24-2.53,2.52,2.52,0,0,1,2.33-1h15.59a3.52,3.52,0,0,1,3.47,2.18L351.7,50.3,361,31.43a3.52,3.52,0,0,1,3.48-2.18H380.1A2.53,2.53,0,0,1,382.43,30.29Z"/><path class="cls-3" d="M429.84,82.47V95.78a2.64,2.64,0,0,1-3,3H391.11a2.63,2.63,0,0,1-3-3V32.23c0-2,1-3,3-3H405c2,0,3,1,3,3V79.49h18.87A2.63,2.63,0,0,1,429.84,82.47Z"/><path class="cls-3" d="M440.27,95.13q-7.35-5.2-8.34-15.94c-.14-2,.86-3.07,3-3.07H449c1.39,0,2.45.89,3.18,2.68q1.4,3.08,7.05,3.07a7.38,7.38,0,0,0,4.32-1.09,3.35,3.35,0,0,0,1.54-2.88q0-2.48-5.76-4.37c-.86-.26-2.22-.66-4.07-1.19l-1-.29q-21.75-6.66-21.75-22.54,0-10.42,7-16.14t18-5.71q10.43,0,17.48,5.07t8,15.09q.19,3.07-3,3.08h-14.2c-1.19,0-2.25-.83-3.17-2.49s-2.59-2.28-5.17-2.28q-5.16,0-5.16,3.48a3,3,0,0,0,.2,1.09,3.11,3.11,0,0,0,.6.94,6.49,6.49,0,0,0,.89.84,5.49,5.49,0,0,0,1.29.75l1.44.6c.43.16,1,.36,1.74.59l1.88.6,2.14.64q1.33.41,2.13.6Q485,62.32,485,78.5q0,10.43-7.2,16.13T459,100.34Q447.62,100.34,440.27,95.13Z"/><path class="cls-3" d="M533.11,32.23v13.3a2.64,2.64,0,0,1-3,3H518.71V95.78a2.64,2.64,0,0,1-3,3h-13.9a2.64,2.64,0,0,1-3-3V48.51H487.43a2.64,2.64,0,0,1-3-3V32.23a2.64,2.64,0,0,1,3-3h42.7A2.64,2.64,0,0,1,533.11,32.23Z"/></g></g></svg>