<svg xmlns="http://www.w3.org/2000/svg" xmlns:xlink="http://www.w3.org/1999/xlink" viewBox="0 0 588.67 140"><defs><style>.cls-1{fill:url(#linear-gradient);}.cls-2{fill:url(#linear-gradient-2);}.cls-3{fill:#fff;}</style><linearGradient id="linear-gradient" x1="-5.7" y1="79.38" x2="201.65" y2="82.27" gradientUnits="userSpaceOnUse"><stop offset="0" stop-color="#eab05e"/><stop offset="0.11" stop-color="#eaa767"/><stop offset="0.3" stop-color="#e98d80"/><stop offset="0.31" stop-color="#e98b82"/><stop offset="0.76" stop-color="#e86ca8"/><stop offset="0.99" stop-color="#eb4cd6"/></linearGradient><linearGradient id="linear-gradient-2" x1="-5.55" y1="68.99" x2="201.8" y2="71.88" xlink:href="#linear-gradient"/></defs><title>Asset 2</title><g id="Layer_2" data-name="Layer 2"><g id="Layer_1-2" data-name="Layer 1"><rect class="cls-1" x="180.05" y="65.19" width="24.37" height="33.89" rx="12.18"/><path class="cls-2" d="M0,53.85V92.56a12.19,12.19,0,1,0,24.37,0V83.18a6.11,6.11,0,0,1,12.21,0v44.63a12.18,12.18,0,1,0,24.36,0V71.86a6.11,6.11,0,0,1,12.21,0v29.91a12.19,12.19,0,0,0,24.37,0v-4a6.11,6.11,0,0,1,12.21,0v4a12.18,12.18,0,0,0,24.36,0V81.48a6.11,6.11,0,1,1,12.21,0V96.9a12.19,12.19,0,0,0,24.37,0V53.85a12.19,12.19,0,1,0-24.37,0v2a6.11,6.11,0,0,1-12.21,0V22.18a12.18,12.18,0,1,0-24.36,0v50a6.11,6.11,0,1,1-12.21,0v-60a12.19,12.19,0,0,0-24.37,0V46.25a6.11,6.11,0,1,1-12.21,0V31.92a12.18,12.18,0,1,0-24.36,0V57.57a6.11,6.11,0,1,1-12.21,0V53.85A12.19,12.19,0,1,0,0,53.85Z"/><path class="cls-3" d="M301.16,38.21a34.29,34.29,0,0,1,13,13,36.69,36.69,0,0,1,4.69,18.43,38.9,38.9,0,0,1-4.36,18.44,33,33,0,0,1-12,13,32.51,32.51,0,0,1-42.14-7.17v35.18a6.78,6.78,0,0,1-11.4,4.82,6.4,6.4,0,0,1-1.88-4.82V69.67a36.33,36.33,0,0,1,4.75-18.43,35.12,35.12,0,0,1,31.07-17.78A36.14,36.14,0,0,1,301.16,38.21Zm-6.51,52.63A23,23,0,0,0,303,82.11a25.37,25.37,0,0,0,3.06-12.44A25.74,25.74,0,0,0,303,57.17a22.91,22.91,0,0,0-8.34-8.79,22.68,22.68,0,0,0-31.85,8.79,26,26,0,0,0-3,12.5,25.66,25.66,0,0,0,3,12.44,23,23,0,0,0,31.85,8.73Z"/><path class="cls-3" d="M334.83,5.32a7,7,0,0,1,9.38,0A6.34,6.34,0,0,1,346,10V81.14a15.53,15.53,0,0,0,1.83,7.94c1.21,2.09,2.78,3.13,4.69,3.13h3.25A5.44,5.44,0,0,1,360,94a6.81,6.81,0,0,1,1.63,4.69,5.57,5.57,0,0,1-2.48,4.69,10.46,10.46,0,0,1-6.38,1.83h-.26a17.54,17.54,0,0,1-10.1-3.06,19.94,19.94,0,0,1-7-8.6A30.16,30.16,0,0,1,333,81.14V10A6.34,6.34,0,0,1,334.83,5.32Z"/><path class="cls-3" d="M431.18,39.71a8.24,8.24,0,0,1-.78,3.13l-39.86,89.62c-1,2.69-2.74,4-5.08,4a8.24,8.24,0,0,1-3.13-.78c-2.6-1.13-3.91-2.82-3.91-5.08a7,7,0,0,1,.78-3.13l13-29.31L362.92,42.58a5.58,5.58,0,0,1-.65-2.74,5.22,5.22,0,0,1,1-3.12,6.88,6.88,0,0,1,2.74-2.22,6.45,6.45,0,0,1,2.6-.52,5.84,5.84,0,0,1,5.47,3.65L398,85.05l21-47.29C420.06,35.24,421.76,34,424,34a7.51,7.51,0,0,1,3.12.65C429.83,35.67,431.18,37.37,431.18,39.71Z"/><path class="cls-3" d="M442.12,5.32A6.52,6.52,0,0,1,453.33,10V81.14a15.53,15.53,0,0,0,1.82,7.94c1.21,2.09,2.78,3.13,4.69,3.13h3.26A5.43,5.43,0,0,1,467.33,94,6.81,6.81,0,0,1,469,98.72a5.57,5.57,0,0,1-2.48,4.69,10.44,10.44,0,0,1-6.38,1.83h-.26a17.54,17.54,0,0,1-10.1-3.06,20,20,0,0,1-7-8.6,30.16,30.16,0,0,1-2.47-12.44V10A6.38,6.38,0,0,1,442.12,5.32Z"/><path class="cls-3" d="M522.17,36.2a26,26,0,0,1,10.62,7.55,6.67,6.67,0,0,1,1.69,4.17,5.24,5.24,0,0,1-2.21,4,6.11,6.11,0,0,1-3.65,1,8.85,8.85,0,0,1-6.12-2.48,19.72,19.72,0,0,0-6.91-4.23,27.87,27.87,0,0,0-8.86-1.24,21.13,21.13,0,0,0-9.83,2q-3.84,2-3.84,5.67a7.09,7.09,0,0,0,1.3,4.36,11.54,11.54,0,0,0,4.95,3.26,62.38,62.38,0,0,0,10.55,2.93q14.19,2.87,20.13,7.95a16.5,16.5,0,0,1,5.92,13.15,19.17,19.17,0,0,1-3.25,10.88,21.77,21.77,0,0,1-9.58,7.69,37.22,37.22,0,0,1-15.17,2.8A50,50,0,0,1,491.23,103,31.9,31.9,0,0,1,479,95.86a5.53,5.53,0,0,1-1.7-4,6.07,6.07,0,0,1,2.61-5.08,7.86,7.86,0,0,1,4.56-1.82,7,7,0,0,1,5,2.34A20.19,20.19,0,0,0,496.83,92a27.8,27.8,0,0,0,10.56,2q7.43,0,11.52-2.47T523,84.92c0-2.7-1.35-4.93-4-6.71s-7.25-3.28-13.68-4.5q-25-4.81-25-20.58a16.09,16.09,0,0,1,3.78-10.81,22.94,22.94,0,0,1,9.9-6.65,38.12,38.12,0,0,1,13-2.21A39.76,39.76,0,0,1,522.17,36.2Z"/><path class="cls-3" d="M587,94a6.77,6.77,0,0,1,1.63,4.69,5.83,5.83,0,0,1-2.15,4.69,8.23,8.23,0,0,1-5.53,1.83h-2.35A21.5,21.5,0,0,1,567,101.92a23.27,23.27,0,0,1-8.27-9.06,27.37,27.37,0,0,1-3-12.89V47.79h-6a6.29,6.29,0,0,1-4.43-1.56,5.11,5.11,0,0,1-1.69-3.91,5.39,5.39,0,0,1,1.69-4.17,6.29,6.29,0,0,1,4.43-1.56h6V17.83a6.51,6.51,0,1,1,13,0V36.59h11.07a6.27,6.27,0,0,1,4.43,1.56,5.4,5.4,0,0,1,1.7,4.17,5.12,5.12,0,0,1-1.7,3.91,6.27,6.27,0,0,1-4.43,1.56H568.74V80a13.35,13.35,0,0,0,2.87,8.72,8.73,8.73,0,0,0,7,3.52h4.43A5.13,5.13,0,0,1,587,94Z"/></g></g></svg>