<svg xmlns="http://www.w3.org/2000/svg" xmlns:xlink="http://www.w3.org/1999/xlink" viewBox="0 0 194.9 133.48"><defs><style>.cls-1{fill:url(#linear-gradient);}.cls-2{fill:url(#linear-gradient-2);}</style><linearGradient id="linear-gradient" x1="-0.75" y1="78.32" x2="194.36" y2="78.32" gradientUnits="userSpaceOnUse"><stop offset="0" stop-color="#eab05e"/><stop offset="0.11" stop-color="#eaa767"/><stop offset="0.3" stop-color="#e98d80"/><stop offset="0.31" stop-color="#e98b82"/><stop offset="0.76" stop-color="#e86ca8"/><stop offset="0.99" stop-color="#eb4cd6"/></linearGradient><linearGradient id="linear-gradient-2" x1="-0.75" y1="66.74" x2="194.36" y2="66.74" xlink:href="#linear-gradient"/></defs><title>Asset 4</title><g id="Layer_2" data-name="Layer 2"><g id="Layer_1-2" data-name="Layer 1"><rect class="cls-1" y="62.16" width="23.23" height="32.32" rx="11.62"/><path class="cls-2" d="M194.9,51.34V88.26a11.62,11.62,0,0,1-23.23,0v-9a5.82,5.82,0,1,0-11.64,0v42.55a11.62,11.62,0,0,1-23.24,0V68.52a5.82,5.82,0,1,0-11.63,0V97a11.62,11.62,0,0,1-23.24,0V93.27a5.82,5.82,0,0,0-11.64,0V97a11.62,11.62,0,1,1-23.23,0V77.69a5.82,5.82,0,1,0-11.64,0v14.7a11.62,11.62,0,0,1-23.24,0v-41a11.62,11.62,0,0,1,23.24,0v1.93a5.82,5.82,0,0,0,11.64,0V21.14a11.62,11.62,0,0,1,23.23,0V68.85a5.82,5.82,0,0,0,11.64,0V11.62a11.62,11.62,0,1,1,23.24,0V44.1a5.82,5.82,0,1,0,11.63,0V30.43a11.62,11.62,0,0,1,23.24,0V54.89a5.82,5.82,0,0,0,11.64,0V51.34a11.62,11.62,0,0,1,23.23,0Z"/></g></g></svg>